<svg width="103" height="106" viewBox="0 0 103 106" fill="none" xmlns="http://www.w3.org/2000/svg">
<g filter="url(#filter0_d_2_181)">
<path d="M34.3067 25.4266L24.1067 15.2833L16.1167 23.2733L26.2601 33.4166L34.3067 25.4266ZM18.6667 57.5H1.66675V68.8333H18.6667V57.5ZM69.6667 1.11664H58.3334V17.8333H69.6667V1.11664ZM111.883 23.2733L103.893 15.2833L93.7501 25.4266L101.74 33.4166L111.883 23.2733ZM93.6934 100.907L103.837 111.107L111.827 103.117L101.627 92.9733L93.6934 100.907ZM109.333 57.5V68.8333H126.333V57.5H109.333ZM64.0001 29.1666C45.2434 29.1666 30.0001 44.41 30.0001 63.1666C30.0001 81.9233 45.2434 97.1666 64.0001 97.1666C82.7567 97.1666 98.0001 81.9233 98.0001 63.1666C98.0001 44.41 82.7567 29.1666 64.0001 29.1666ZM58.3334 125.217H69.6667V108.5H58.3334V125.217ZM16.1167 103.06L24.1067 111.05L34.2501 100.85L26.2601 92.86L16.1167 103.06Z" fill="white" fill-opacity="0.38" shape-rendering="crispEdges"/>
</g>
<defs>
<filter id="filter0_d_2_181" x="0.666748" y="0.116638" width="138.667" height="138.1" filterUnits="userSpaceOnUse" color-interpolation-filters="sRGB">
<feFlood flood-opacity="0" result="BackgroundImageFix"/>
<feColorMatrix in="SourceAlpha" type="matrix" values="0 0 0 0 0 0 0 0 0 0 0 0 0 0 0 0 0 0 127 0" result="hardAlpha"/>
<feOffset dx="6" dy="6"/>
<feGaussianBlur stdDeviation="3.5"/>
<feComposite in2="hardAlpha" operator="out"/>
<feColorMatrix type="matrix" values="0 0 0 0 0 0 0 0 0 0 0 0 0 0 0 0 0 0 0.25 0"/>
<feBlend mode="normal" in2="BackgroundImageFix" result="effect1_dropShadow_2_181"/>
<feBlend mode="normal" in="SourceGraphic" in2="effect1_dropShadow_2_181" result="shape"/>
</filter>
</defs>
</svg>
