<svg width="85" height="89" viewBox="0 0 85 89" fill="none" xmlns="http://www.w3.org/2000/svg">
<g filter="url(#filter0_d_2_178)">
<path d="M20.5417 39.7083H-2.20825V47.2916H20.5417V39.7083ZM28.7697 27.4233L20.7313 19.385L15.3851 24.7312L23.4234 32.7695L28.7697 27.4233ZM43.2917 1.79163H35.7084V24.5416H43.2917V1.79163ZM63.6151 24.7312L58.2688 19.385L50.2305 27.4233L55.5767 32.7695L63.6151 24.7312ZM58.4584 39.7083V47.2916H81.2084V39.7083H58.4584ZM39.5001 32.125C33.2059 32.125 28.1251 37.2058 28.1251 43.5C28.1251 49.7941 33.2059 54.875 39.5001 54.875C45.7942 54.875 50.8751 49.7941 50.8751 43.5C50.8751 37.2058 45.7942 32.125 39.5001 32.125ZM50.2305 59.5766L58.2688 67.615L63.6151 62.2687L55.5767 54.2304L50.2305 59.5766ZM15.3851 62.2687L20.7313 67.615L28.7697 59.5766L23.4234 54.2304L15.3851 62.2687ZM35.7084 85.2083H43.2917V62.4583H35.7084V85.2083Z" fill="white" fill-opacity="0.38" shape-rendering="crispEdges"/>
</g>
<defs>
<filter id="filter0_d_2_178" x="-6.20825" y="0.791626" width="97.4167" height="97.4166" filterUnits="userSpaceOnUse" color-interpolation-filters="sRGB">
<feFlood flood-opacity="0" result="BackgroundImageFix"/>
<feColorMatrix in="SourceAlpha" type="matrix" values="0 0 0 0 0 0 0 0 0 0 0 0 0 0 0 0 0 0 127 0" result="hardAlpha"/>
<feOffset dx="3" dy="6"/>
<feGaussianBlur stdDeviation="3.5"/>
<feComposite in2="hardAlpha" operator="out"/>
<feColorMatrix type="matrix" values="0 0 0 0 0 0 0 0 0 0 0 0 0 0 0 0 0 0 0.25 0"/>
<feBlend mode="normal" in2="BackgroundImageFix" result="effect1_dropShadow_2_178"/>
<feBlend mode="normal" in="SourceGraphic" in2="effect1_dropShadow_2_178" result="shape"/>
</filter>
</defs>
</svg>
